# xmcd
#
# Track frame offsets:
# 150
# 20769
# 37517
# 48952
# 65257
# 78077
# 98910
# 112172
# 130190
# 139805
# 158185
#
# Disc length: 2365 seconds
#
#
# Revision: 0
# Processed by: cddbd v1.4PL0 Copyright (c) Steve Scherf et al.
# Submitted via: FreeRIP 2.35 
#
DISCID=87093b0b
DTITLE=Tintin og Hårtørrerne - Verden Venter
DYEAR=1900
DGENRE=
TTITLE0=Verden venter
TTITLE1=Kæmpeappetit
TTITLE2=Ta' med
TTITLE3=Sammen med dig
TTITLE4=Flip ud!
TTITLE5=Hjem igen
TTITLE6=Kongen
TTITLE7=Ringe til far
TTITLE8=Du ga' et løfte
TTITLE9=Søndag hele ugen
TTITLE10=Danser i nat
EXTD=
EXTT0=
EXTT1=
EXTT2=
EXTT3=
EXTT4=
EXTT5=
EXTT6=
EXTT7=
EXTT8=
EXTT9=
EXTT10=
PLAYORDER=
